<?xml version="1.0" standalone="no"?>
<!DOCTYPE svg PUBLIC "-//W3C//DTD SVG 20010904//EN"
 "http://www.w3.org/TR/2001/REC-SVG-20010904/DTD/svg10.dtd">
<svg version="1.0" xmlns="http://www.w3.org/2000/svg"
 width="2000.000000pt" height="2000.000000pt" viewBox="0 0 2000.000000 2000.000000"
 preserveAspectRatio="xMidYMid meet">
<metadata>
Created by potrace 1.11, written by Peter Selinger 2001-2013
</metadata>
<g transform="translate(0.000000,2000.000000) scale(0.100000,-0.100000)"
fill="#000000" stroke="none">
<path d="M10507 19924 c-1 -1 -78 -5 -172 -9 -93 -3 -190 -8 -215 -10 -80 -6
-184 -16 -220 -20 -203 -24 -299 -36 -320 -40 -14 -2 -70 -11 -125 -20 -219
-35 -709 -139 -1076 -229 -304 -75 -1069 -305 -1184 -356 -11 -5 -31 -12 -45
-16 -25 -6 -343 -122 -410 -149 -19 -7 -100 -39 -180 -70 -171 -67 -462 -189
-575 -240 -44 -21 -130 -56 -191 -80 -60 -23 -132 -53 -160 -65 -27 -12 -65
-28 -84 -37 -81 -35 -459 -228 -606 -309 -87 -48 -177 -97 -199 -110 -115 -62
-553 -315 -605 -349 -19 -12 -125 -77 -235 -144 -110 -67 -245 -151 -300 -186
-55 -36 -116 -74 -135 -85 -30 -18 -192 -126 -243 -162 -9 -7 -87 -60 -173
-118 -85 -58 -248 -171 -362 -251 -407 -286 -690 -487 -756 -535 -244 -179
-461 -343 -516 -390 -14 -12 -70 -59 -125 -104 -55 -46 -102 -85 -105 -89 -3
-3 -48 -44 -100 -91 -164 -147 -346 -335 -455 -470 -168 -209 -256 -376 -358
-690 -60 -182 -107 -401 -124 -580 -12 -116 -8 -416 6 -500 7 -41 15 -88 17
-105 17 -105 81 -299 134 -407 134 -268 341 -453 652 -581 28 -12 36 -21 33
-35 -2 -10 -6 -43 -10 -73 -4 -30 -8 -56 -10 -59 -1 -3 -6 -41 -10 -85 -4 -44
-9 -93 -11 -110 -24 -234 -24 -801 1 -955 2 -14 6 -50 9 -81 6 -59 14 -117 21
-159 3 -14 7 -43 10 -65 3 -22 7 -51 10 -65 3 -14 10 -52 16 -85 6 -33 24
-116 40 -185 245 -1035 738 -1633 1614 -1958 251 -93 452 -149 925 -257 285
-65 466 -106 546 -125 272 -65 654 -130 967 -165 65 -7 120 -15 122 -17 4 -4
-24 -37 -102 -123 -73 -80 -240 -292 -294 -375 -164 -248 -299 -524 -399 -814
-174 -503 -108 -981 175 -1271 109 -112 274 -192 463 -225 58 -11 71 -16 68
-29 -6 -20 -27 -101 -32 -121 -13 -56 -63 -323 -68 -360 -4 -25 -8 -56 -10
-70 -3 -14 -7 -47 -10 -75 -4 -27 -9 -68 -11 -90 -32 -252 -37 -739 -10 -990
2 -22 7 -65 10 -95 3 -30 7 -66 9 -80 2 -14 7 -52 11 -85 23 -191 88 -485 161
-725 19 -63 39 -124 44 -135 5 -11 25 -60 43 -110 100 -263 266 -545 427 -730
338 -387 763 -628 1425 -809 196 -54 446 -115 625 -153 14 -3 30 -6 35 -7 40
-10 79 -19 220 -51 88 -20 196 -45 240 -55 78 -18 416 -84 485 -94 124 -19
324 -46 370 -51 30 -3 69 -8 85 -10 314 -44 1024 -54 1455 -20 149 12 336 32
430 45 36 5 85 12 110 15 208 27 602 105 880 175 1342 337 2669 958 4420 2068
983 623 1418 933 1878 1336 320 280 637 610 819 851 117 155 251 382 327 555
16 36 34 79 42 95 85 190 203 607 238 850 4 23 9 52 11 65 3 14 10 66 15 115
6 50 13 106 15 125 27 216 27 821 0 1035 -2 17 -7 59 -10 95 -3 36 -13 110
-21 165 -8 55 -17 118 -20 140 -22 157 -90 457 -155 681 l-41 141 40 65 c120
196 194 488 187 743 -19 783 -722 1544 -1950 2110 -227 105 -657 255 -825 289
-14 3 -86 19 -160 36 -142 33 -443 93 -545 110 -33 6 -71 12 -85 14 -39 7
-242 38 -275 42 -16 2 -68 9 -115 15 -47 6 -96 12 -110 14 -44 4 -164 17 -180
20 -9 2 -60 6 -115 10 -55 4 -108 9 -118 11 -10 2 -76 6 -145 10 -111 6 -163
9 -195 13 -7 1 63 94 84 111 12 10 117 158 174 245 130 198 272 508 354 770
37 121 83 290 96 360 17 85 55 310 60 347 3 24 7 61 10 83 39 306 40 799 4
1145 -24 229 -96 659 -129 765 -5 17 -11 41 -14 55 -2 14 -7 36 -11 50 -5 23
-1 29 37 49 173 96 364 263 431 379 20 34 46 93 58 132 20 67 20 82 16 597 -2
290 -6 537 -9 548 -3 11 -9 47 -13 80 -4 32 -9 68 -11 80 -2 11 -7 34 -10 50
-32 177 -106 375 -186 500 -51 78 -137 172 -204 223 -137 103 -386 212 -699
308 -49 15 -94 31 -100 36 -5 4 -16 8 -24 8 -8 0 -134 39 -280 86 -580 187
-672 217 -831 265 -91 27 -181 54 -200 59 -19 5 -82 23 -140 39 -125 35 -442
115 -543 137 -40 9 -80 17 -89 20 -45 11 -239 51 -288 59 -19 3 -66 12 -105
20 -71 14 -277 49 -350 59 -22 3 -49 7 -60 10 -11 2 -45 7 -75 10 -30 4 -66 8
-80 10 -34 6 -105 15 -160 20 -25 3 -72 8 -105 12 -33 3 -76 7 -95 9 -19 1
-66 6 -105 9 -186 17 -443 28 -693 30 -112 1 -204 1 -205 0z"/>
</g>
</svg>
